<svg width="120" height="132" viewBox="0 0 120 132" fill="none" xmlns="http://www.w3.org/2000/svg">
<path d="M108.316 17.2289C108.586 17.0489 108.836 16.8589 109.076 16.6489C110.656 15.1989 111.506 13.1089 111.966 11.0189C112.156 10.1389 112.296 9.2389 112.266 8.3389C112.146 5.0689 109.736 2.1389 106.706 0.888895C103.676 -0.351105 100.176 -0.0811048 97.1162 1.0989C95.6562 1.6589 94.2462 2.4389 93.2162 3.6089C92.2862 4.6589 91.7362 5.9489 91.3762 7.3089C90.0662 7.0189 88.7462 6.7589 87.4362 6.5389C74.2262 4.2589 60.6762 4.0089 47.3962 5.7789C43.2762 6.3289 39.0362 6.9189 34.8862 7.8489C34.6362 6.6089 34.2162 5.4289 33.4662 4.4089C32.5462 3.1489 31.2162 2.2489 29.8162 1.5489C26.8762 0.0988951 23.4162 -0.491105 20.2862 0.468895C17.1562 1.4289 14.4862 4.1289 14.0662 7.3789C13.9562 8.2789 14.0062 9.1789 14.1162 10.0789C14.3862 12.2089 15.0362 14.3589 16.4762 15.9489C16.5262 15.9989 16.5762 16.0489 16.6262 16.0989C10.2862 21.6489 7.15623 29.7589 5.06623 37.7389C1.02623 53.1589 -1.48377 72.2789 2.87623 87.9189C4.60623 94.1489 8.87624 99.1289 13.6362 103.329C14.8662 104.419 28.1562 114.339 28.0362 114.549C24.8762 119.889 22.3062 125.579 20.3762 131.479H94.5562C93.3762 125.889 91.0162 120.549 87.6062 115.969C101.656 110.569 112.896 98.3189 117.076 83.8489C119.116 76.7589 119.536 69.3089 119.556 61.9389C119.596 48.6889 118.276 35.0389 112.166 23.2789C111.066 21.1689 109.806 19.1189 108.336 17.2489L108.316 17.2289Z" fill="#9E8D8D"/>
<path d="M38.5563 33.5489C42.6263 29.3389 48.4863 27.2989 54.2763 26.4689C61.6763 25.4189 69.4263 26.1689 76.1963 29.3189C82.9763 32.4689 88.6963 38.1189 91.2563 45.1389C92.6763 49.0389 93.1163 53.2389 93.2463 57.3889C93.3963 62.3089 93.1163 67.3389 91.3063 71.9089C88.3163 79.4889 81.3863 84.9989 73.8263 88.0389C64.9763 91.5989 54.6663 92.1089 45.9763 88.1489C37.2463 84.1789 28.6463 73.5289 28.4363 63.5789C28.2463 54.3989 32.1663 40.1489 38.5563 33.5389V33.5489Z" fill="white"/>
<path d="M61.5862 41.1389C63.8062 39.9189 65.6762 37.4489 65.8362 35.0889C65.9562 33.3189 64.5362 31.7489 62.8862 31.0889C61.2362 30.4389 59.4062 30.4989 57.6362 30.5789C55.5662 30.6689 52.9962 31.1389 52.4462 33.1289C52.0862 34.4289 52.8262 35.7589 53.5362 36.9089L55.3362 39.8189C56.8762 42.3189 59.3963 42.3189 61.5763 41.1189L61.5862 41.1389Z" fill="#9E8D8D"/>
<path d="M58.1663 79.6689C58.1663 79.6689 58.0863 79.6689 58.0563 79.6689C57.6163 79.6089 57.3163 79.1989 57.3763 78.7589C59.1263 66.4889 59.4363 54.0089 58.2863 41.6589C58.2463 41.2189 58.5663 40.8289 59.0063 40.7889C59.4463 40.7489 59.8363 41.0689 59.8763 41.5089C61.0363 53.9789 60.7262 66.5889 58.9562 78.9789C58.8962 79.3789 58.5563 79.6689 58.1663 79.6689Z" fill="#9E8D8D"/>
<path d="M59.6962 80.6789C57.9462 80.6789 56.1462 80.0989 54.6362 78.9889C52.5962 77.4889 51.0861 75.0789 50.3961 72.2089C50.2961 71.7789 50.5562 71.3489 50.9862 71.2489C51.4162 71.1389 51.8462 71.4089 51.9462 71.8389C52.5462 74.3389 53.8362 76.4289 55.5762 77.7089C57.5062 79.1289 60.0161 79.4889 61.9661 78.6189C64.0161 77.7089 65.2662 75.3389 64.7462 73.3489C64.6362 72.9189 64.8962 72.4889 65.3162 72.3689C65.7362 72.2589 66.1762 72.5089 66.2962 72.9389C67.0162 75.7089 65.3962 78.8389 62.6162 80.0789C61.7062 80.4789 60.7062 80.6789 59.6862 80.6789H59.6962Z" fill="#9E8D8D"/>
<path d="M38.5961 29.0889C37.7461 29.0889 36.9161 28.8489 36.2261 28.3889C34.6261 27.3289 33.7362 25.1989 34.0162 23.0789C34.0762 22.6389 34.4761 22.3289 34.9161 22.3889C35.3561 22.4489 35.6661 22.8489 35.6061 23.2889C35.4061 24.8089 36.0061 26.3189 37.1161 27.0489C37.6861 27.4289 38.4661 27.5689 39.1861 27.4189C39.8061 27.2989 40.3061 26.9789 40.6061 26.5289C41.0861 25.7989 41.1061 24.7889 41.0861 23.6389C41.0861 23.1989 41.4261 22.8289 41.8761 22.8289C42.3361 22.8489 42.6861 23.1689 42.6861 23.6189C42.7061 24.7189 42.7361 26.2189 41.9361 27.4189C41.4061 28.2289 40.5362 28.7889 39.5062 28.9989C39.2062 29.0589 38.9061 29.0889 38.6061 29.0889H38.5961Z" fill="white"/>
<path d="M81.6263 28.1489C80.6063 28.1489 79.5662 27.7389 78.7962 26.9989C77.8262 26.0489 77.3163 24.6189 77.4463 23.1689C77.4863 22.7289 77.8663 22.4089 78.3163 22.4389C78.7563 22.4789 79.0762 22.8689 79.0462 23.3089C78.9562 24.2689 79.2962 25.2489 79.9162 25.8489C80.5562 26.4689 81.5363 26.7089 82.3063 26.4289C82.7963 26.2489 83.2163 25.8289 83.4463 25.2689C83.6763 24.7089 83.6763 24.1189 83.4463 23.6489C83.2563 23.2489 83.4263 22.7689 83.8263 22.5789C84.2263 22.3889 84.7062 22.5589 84.8962 22.9589C85.3162 23.8389 85.3262 24.8989 84.9262 25.8789C84.5262 26.8489 83.7762 27.5989 82.8562 27.9289C82.4662 28.0689 82.0463 28.1389 81.6363 28.1389L81.6263 28.1489Z" fill="white"/>
<path d="M20.7862 13.9189C20.4462 13.9389 19.8463 13.6989 19.4363 13.2489C18.7463 12.4889 18.2963 11.2489 18.0763 9.56889C17.9863 8.84889 17.9662 8.30889 18.0262 7.87889C18.2162 6.34889 19.6662 4.83889 21.4562 4.28889C21.9162 4.14889 22.4163 4.05889 22.9363 4.01889C24.5363 3.89889 26.3462 4.29889 28.0362 5.13889C29.0762 5.64889 29.8162 6.19889 30.2262 6.76889C30.7262 7.44889 30.9662 8.43889 31.0962 9.55889L20.8462 13.9289H20.7762L20.7862 13.9189Z" fill="white"/>
<path d="M104.906 14.2289L95.0862 8.9389C95.3162 7.8389 95.6562 6.8789 96.2162 6.2389C96.6862 5.7089 97.4662 5.2289 98.5462 4.8189C100.306 4.1389 102.146 3.9089 103.726 4.1689C104.236 4.2489 104.726 4.3889 105.176 4.5789C106.906 5.2889 108.206 6.9289 108.256 8.4689C108.276 8.9089 108.206 9.4389 108.046 10.1489C107.676 11.8089 107.116 12.9989 106.356 13.6889C105.906 14.0989 105.286 14.2889 104.946 14.2389C104.946 14.2389 104.906 14.2389 104.886 14.2289H104.906Z" fill="white"/>
</svg>
