<svg width="760" height="133" viewBox="0 0 760 133" fill="none" xmlns="http://www.w3.org/2000/svg">
<path d="M759.86 113.62C759.15 108.8 753.06 108.12 748.43 108.14C747.36 83.69 742.45 59.44 741.67 35.03C742.01 31.44 742.31 27.85 742.55 24.22C742.84 19.91 743.52 14.82 743.07 10.07C743.29 9.76 743.42 9.43 743.45 9.1C743.59 8.7 743.73 8.3 743.84 7.88C744.21 6.36 743.36 4.56 741.74 4.19H741.72C741.35 3.27 740.89 2.39 740.33 1.57C738.18 -1.61 732.98 1.39 735.15 4.6C735.5 5.11 735.78 5.66 736.03 6.23C730.83 6.89 725.49 7.01 720.16 7.01C722.12 6.24 724.08 5.7 725.72 5.98C729.5 6.63 731.12 0.849999 727.32 0.189999C720.72 -0.950001 714.63 3.82 708.32 5.02C696.78 7.21 684.53 7.02 672.83 7.58C649.73 8.67 626.61 7.06 603.51 7.92C556.97 9.66 510.51 3.06 463.99 5.8C440.81 7.16 417.73 9.09 394.5 9.8C371.25 10.51 347.99 10.83 324.75 11.7C301.68 12.56 278.58 14.15 255.49 12.63C244.15 11.88 233.19 11.48 221.84 12.4C210.43 13.32 199.03 14.73 187.57 14.56C174.69 14.37 161.83 13.8 148.95 13.86C138.42 13.91 127.97 14.6 117.49 15.18C106.54 14.75 95.57 14.54 84.54 14.92C74.84 15.26 65.17 16.08 55.49 16.57C54.06 16.15 52.79 15.51 51.75 14.58C49.54 12.59 46.52 14.65 46.57 16.89C45.99 16.9 45.41 16.92 44.83 16.93C38.27 17.02 31.71 16.89 25.15 16.73C25.67 15.23 26.17 13.73 26.59 12.2C27.61 8.45 21.03 6.85 20.01 10.61C19.67 11.87 19.3 13.11 18.93 14.35C16.6 13.74 13.78 14.44 12.14 16.44C9.42 16.39 6.69 16.35 3.97 16.34C-0.419997 16.33 -0.429997 22.33 3.97 22.34C6.18 22.34 8.39 22.37 10.61 22.41C9.09 42.22 7.23 61.99 5.78 81.81C4.66 97.04 1.04 112.81 3.82 128.04C4.85 133.7 11.54 133.35 14.31 129.67C20.12 133.34 35.94 132.14 39.87 132.13C47.25 132.1 54.64 132.36 62.01 132.23C74.34 132 86.64 130.99 98.98 130.96C111.66 130.93 124.34 131.68 137.03 131.64C145.36 131.61 153.7 131.45 162.03 131.2C163.27 131.31 164.5 131.42 165.74 131.5C189.24 133.08 212.6 131.66 236.1 130.94C259.41 130.22 282.64 133.59 305.96 132.66C328.96 131.74 351.74 128.68 374.78 128.65C388.8 128.63 402.82 128.61 416.84 128.21C418.24 128.6 419.1 129 419.33 129.41H434.48C434.48 128.72 435.23 128.03 436.61 127.36C439.62 127.18 442.63 126.97 445.63 126.72C456.71 125.83 467.78 124.71 478.89 124.37C490.54 124.02 502.17 124.97 513.82 124.76C531.04 124.45 548.37 123.19 565.54 121.13C574.15 121.03 582.76 121.02 591.38 121.04C604.47 121.67 617.56 122.29 630.63 122.98C641.7 123.57 652.78 123.96 663.84 124.62C668.77 124.91 673.72 125.11 678.63 124.47C683.98 123.77 688.97 121.6 694.41 121.48C694.56 121.48 694.69 121.45 694.82 121.43C698.12 121.89 701.26 121.85 705.13 121.38C707.77 121.06 710.36 121.15 712.94 121.31C712.87 122.57 712.8 123.83 712.9 125.1C713.17 128.56 718.23 129.06 719.61 125.9C720.15 124.67 720.61 123.42 721.03 122.17C722.03 121.92 723.03 121.67 724.01 121.36C727.67 120.22 726.84 116.21 723.72 115.6C723.64 115.11 723.41 114.68 723.04 114.35C723.07 114.21 723.09 114.07 723.11 113.93C723.14 113.93 723.17 113.93 723.2 113.92C723.61 114.9 724.46 115.7 725.78 115.84C727.4 116.01 729.09 115.95 730.78 115.79C730.76 116.01 730.74 116.23 730.71 116.46C730.26 116.94 729.97 117.59 729.99 118.45C730.03 119.44 730.03 120.42 729.99 121.41C729.93 124.72 735.22 125.59 735.88 122.21C736.09 121.15 736.25 120.09 736.39 119.02C739.02 120.4 741.92 121.38 744.88 122.04C746.78 122.47 748.66 121.17 748.68 119.15C748.7 117.5 748.68 115.86 748.66 114.21C748.84 114.21 749.02 114.21 749.2 114.21C750.44 114.25 751.61 114.41 752.84 114.59C754.11 114.78 754.09 114.97 754.13 115.24C754.69 119.05 760.47 117.43 759.92 113.64L759.86 113.62ZM737.46 73.17C737.62 70.22 737.81 67.28 738.08 64.34C738.45 67.57 738.84 70.81 739.23 74.04C738.73 73.54 738.11 73.25 737.46 73.17ZM740.96 114.53C741.01 114.52 741.07 114.5 741.12 114.49C741.62 114.45 742.11 114.41 742.61 114.37C742.61 114.64 742.61 114.9 742.62 115.17C742.05 114.98 741.49 114.77 740.94 114.54C740.94 114.54 740.95 114.54 740.96 114.53ZM735.65 34.28C735.66 34.73 735.67 35.18 735.69 35.64C735.26 39.86 734.71 44.06 734.12 48.27C733.82 48.24 733.51 48.24 733.2 48.28C733.67 44.64 734.24 41.01 735.04 37.39C735.27 36.36 735.46 35.32 735.64 34.28H735.65ZM722.21 76.15C722.82 73.99 723.44 71.77 724.05 69.52C723.84 71.02 723.61 72.52 723.36 74.01C723.28 74.41 723.21 74.81 723.14 75.22C722.76 76.98 722.44 78.76 722.17 80.55C721.62 83.38 721.05 86.21 720.48 89.03C719.94 89.14 719.43 89.34 719.02 89.66C720.05 85.45 721.13 80.9 722.21 76.15ZM701.81 79.9C702.05 79.72 702.25 79.6 702.39 79.54C702.86 79.51 703.31 79.45 703.75 79.36C702.8 82.95 702.01 85.03 702.01 85.03C702.01 88.01 697.47 88.98 692.95 89.3C693.58 88.51 694.21 87.72 694.85 86.95C696.35 85.15 697.91 83.39 699.65 81.76C700.29 81.16 701.34 80.25 701.8 79.9H701.81ZM483.21 20.83C483.34 21.54 483.53 22.24 483.8 22.9C482.47 22.9 481.16 22.91 479.88 22.91C467.46 22.91 453.2 22.64 438.08 22.24C453.12 21.79 468.17 21.31 483.21 20.83ZM702.81 39.92C698.3 52.66 687.93 63.35 679.88 73.93C675.94 79.11 672.6 84.74 669.25 90.37C666.1 89.36 663.87 85.13 666.92 82.04C669.34 79.58 671.61 77 673.78 74.33C673.1 75.03 672.41 75.73 671.73 76.42V76.37C672.56 75.49 673.41 74.61 674.25 73.74C682.86 63 689.7 50.88 696.58 38.99C698.48 35.7 702.28 36.11 704.4 38.15C703.71 38.46 703.13 39.03 702.81 39.92ZM583.69 81.72C577.52 87.14 571.54 92.63 566.64 99C565.64 100.31 565.33 101.59 565.52 102.76C550.57 102.72 550.67 98.27 575.81 85.02C576.63 83.94 577.45 82.93 578.27 81.96C582 79.6 585.69 77.19 589.37 74.72C591.65 73.19 593.95 71.69 596.25 70.19C592.11 74.07 587.99 77.96 583.7 81.72H583.69ZM591.66 97.32L585.9 98.33L589.43 95.23C589.97 96.03 590.75 96.75 591.66 97.32ZM426.89 104.57C422.08 104.4 417.27 104.31 412.47 104.33L416.18 101.07C419.23 99.81 422.28 98.57 425.34 97.33C423.49 99.87 424.58 102.79 426.89 104.57ZM178.04 94.54C179.25 93.24 179.63 91.68 179.42 90.17C179.57 90.01 179.72 89.86 179.84 89.75C180.89 88.85 182 88.01 183.12 87.18C186.06 85 189 82.83 191.91 80.63C199.74 74.73 207.67 68.93 215.55 63.09C219.14 60.43 222.61 57.65 226.06 54.86C226.22 54.89 226.38 54.92 226.53 54.92C210.06 72.14 191.59 87.37 178.03 94.54H178.04ZM198.62 97.69C198.37 98.03 198.17 98.37 198.02 98.71C197.68 98.63 197.37 98.52 197.15 98.33C197.15 98.33 197.34 98.08 197.72 97.62C198.01 97.66 198.31 97.68 198.62 97.69ZM170.8 97.74C168.47 98.52 166.41 98.92 164.66 98.89C161.99 101.18 159.03 103.37 156.05 103.98C159.85 101.64 163.61 99.24 167.34 96.79C168.38 97.35 169.57 97.71 170.8 97.74ZM341.26 31.82C341.88 31.79 342.64 31.79 343.57 31.79C343.63 31.79 343.69 31.79 343.75 31.79C342.93 32.25 342.13 32.73 341.34 33.23C341.39 32.75 341.35 32.28 341.26 31.81V31.82ZM382.22 37.06C383.32 36.51 383.96 36.23 383.96 36.23C387.61 36.23 383.33 40.88 376.87 46.81C374.87 46.59 372.87 46.41 370.87 46.29C367.21 46.06 367.04 51.46 370.33 52.2C366.55 54.42 361.67 55.44 357.97 57.17C355.74 58.22 356.18 60.7 357.69 61.94C355.65 63.37 353.55 64.83 351.42 66.3C350.36 66.81 349.3 67.32 348.23 67.8C348.02 67.9 347.83 68.01 347.66 68.13C348.16 67.57 348.66 67 349.17 66.44C358.87 55.73 369.38 43.52 382.28 36.32C382.28 36.57 382.27 36.82 382.22 37.07V37.06ZM503.87 40.16C499.64 42.99 495.42 45.84 491.22 48.69C486.61 49.68 482.01 50.7 477.42 51.74C490.79 40.2 495.93 37.15 503.87 40.16ZM622.27 38.95C623.63 35.45 626.17 33.8 628.98 34.81C626.74 36.19 624.5 37.57 622.27 38.95ZM606.49 17.69C605.29 17.51 604.04 17.56 602.87 17.93C584.32 19.17 564.46 20.28 545.31 21.14C544.89 20.28 544.28 19.51 543.55 18.9C556.73 18.49 569.9 18.08 583.08 17.7C598.62 17.25 614.16 16.63 629.69 15.96C622.35 16.55 614.58 17.12 606.5 17.68L606.49 17.69ZM315.11 90.61C314.61 90.93 314.12 91.25 313.63 91.57C313.43 90.81 312.97 90.12 312.31 89.72C314.15 87.7 316 85.69 317.85 83.68C318.97 83.14 320.09 82.6 321.2 82.06C319.11 84.87 317.08 87.72 315.11 90.61ZM302.27 79.23C303.88 77.9 305.5 76.57 307.1 75.24C308.56 74.03 310.03 72.84 311.51 71.65C310.23 73.02 308.95 74.4 307.68 75.78C305.88 76.93 304.07 78.08 302.27 79.23ZM288.37 60.44C287.26 61.44 286.1 62.38 284.92 63.27C281.96 64.31 279.02 65.38 276.09 66.46C274.57 67.02 273.07 67.6 271.57 68.18C276.2 65.62 280.87 63.12 285.56 60.64C286.5 60.51 287.43 60.43 288.37 60.44ZM227.44 107.21C220.57 107.21 220.72 103.1 234.22 92.1C236.34 91.15 238.43 90.15 240.52 89.12C235.74 93.28 232.39 98.13 234.32 102.97C234.47 103.34 234.65 103.68 234.84 104.01C232.91 105.91 230.17 107.22 227.44 107.22V107.21ZM229.22 119.38C224.83 119.69 220.39 119.55 215.95 119.2C220.36 119.26 224.78 119.32 229.22 119.38ZM450.84 47.55C450.84 47.55 450.91 47.59 450.94 47.6C450.92 47.62 450.9 47.65 450.88 47.67C445.23 51.85 439.44 55.88 433.6 59.86C430.1 62 426.52 64.02 422.89 65.95C422.34 66.1 421.8 66.26 421.25 66.42C426.17 62.98 430.65 60.08 434.43 58.42C440.23 53.33 446.01 49.72 450.85 47.55H450.84ZM469.55 59.71C472.37 59.04 475.2 58.39 478.02 57.75C476.59 58.74 475.15 59.73 473.73 60.73C470.19 61.73 466.67 62.76 463.15 63.82C464.79 62.55 466.33 61.32 467.73 60.15C468.34 60.01 468.94 59.85 469.55 59.71ZM454.74 74.33C452.35 75.33 449.98 76.35 447.62 77.4C446.25 77.75 444.87 78.09 443.49 78.42C445.12 77.21 446.79 75.99 448.47 74.76C451.89 73.63 455.31 72.52 458.75 71.44C457.42 72.41 456.08 73.37 454.75 74.34L454.74 74.33ZM564.33 41.32C564.3 41.22 564.26 41.13 564.21 41.04C563.96 40.36 563.5 39.77 562.88 39.44C563.37 39.18 563.86 38.93 564.36 38.69C566 37.93 566.98 36.87 567.45 35.71C568.55 36.31 569.41 37.07 569.98 37.99C568.09 39.09 566.2 40.19 564.34 41.33L564.33 41.32ZM368.79 102.78C368.79 102.78 375.02 97.31 385.03 90.66C384.59 91.77 384.8 92.93 385.43 93.76C384.07 95.37 382.96 97.1 382.25 98.98C381.63 100.61 381.99 102.24 382.92 103.57C372.97 107.21 366.18 107.36 368.78 102.78H368.79ZM507.3 90.14C507.19 90.61 507.16 91.1 507.19 91.58C506.05 92.43 504.93 93.21 503.83 93.95C504.98 92.67 506.13 91.39 507.3 90.14ZM363.76 42.56C365.49 40.78 367.22 39.01 368.95 37.24C369.78 36.4 369.95 35.41 369.72 34.53C371.34 33.5 372.99 32.51 374.72 31.6C376.2 30.82 377.64 30.83 378.86 31.33C373.46 34.38 368.46 38.27 363.77 42.56H363.76ZM320.93 34.3C319.84 35.09 318.76 35.89 317.69 36.69C315.96 34.11 312.38 32.54 308.62 34.54C305.34 36.29 302.04 38 298.73 39.71C300.36 37.43 305.19 31.79 313.25 31.79C319.23 30.48 321.64 31.51 320.93 34.29V34.3ZM207.65 47.37C212.08 43.65 216.67 40.08 221.48 36.73C222.03 36.67 222.58 36.54 223.13 36.33C223.32 36.33 223.52 36.33 223.72 36.33C223.44 36.49 223.16 36.71 222.91 37.01C213.3 48.69 200.48 56.68 188.24 65.31C194.97 59.49 201.74 53.66 208.92 48.39C209.5 47.96 210.17 47.46 210.88 46.94C209.89 47 208.82 47.14 207.66 47.38L207.65 47.37ZM227.34 37.5C227.01 36.98 226.56 36.56 226.04 36.29C226.98 36.29 227.93 36.27 228.9 36.27C228.37 36.68 227.86 37.09 227.33 37.5H227.34ZM185.4 74.71C190.48 70.89 195.78 67.32 201.03 63.67C199.05 65.4 197.08 67.15 195.11 68.88C185.06 77.73 173.9 85.68 162.4 93.04C170.1 86.98 177.57 80.59 185.4 74.71ZM217.22 51.35C219.74 49.15 222.16 46.83 224.43 44.35C225.68 45.63 226.01 47.28 225.7 48.81C222.79 48.67 219.88 49.82 217.21 51.35H217.22ZM255.39 37.52C248.67 39.07 238.47 44.79 229.54 52.18C229.54 52.12 229.56 52.06 229.56 52C232.11 49.92 234.67 47.84 237.27 45.79C240.2 43.48 243.2 41.25 246.28 39.1C247.21 38.46 248.89 37.08 250.33 36.23H257.05C256.5 36.66 255.95 37.09 255.4 37.51L255.39 37.52ZM200.12 37.54C180.44 54.16 163.6 73.45 141.65 87.8C138.16 90.08 138.12 93.82 139.83 96.42C129.53 102.45 121.4 107.22 121.4 107.22C111.3 107.22 131.5 89.48 156.74 76.17C166.84 67.3 176.93 58.43 181.98 49.55C184.7 42.37 188.91 39.07 200.12 37.55V37.54ZM131.5 76.16C124.56 82.26 118.69 86.94 113.45 90.62C121.84 83.8 130.37 77.11 138.58 70.09C149 61.18 159.1 51.34 170.84 43.62C170.72 47.6 160.13 56.59 131.5 76.17V76.16ZM56.43 103.51C57.11 103.7 57.87 103.65 58.59 103.27C58.89 103.11 59.17 102.92 59.46 102.75C60.19 102.6 60.91 102.64 61.62 102.9C64.52 103.46 66.13 100.19 65.01 98.3C65.02 98.29 65.03 98.28 65.04 98.27C65.27 98.31 65.54 98.34 65.86 98.34C67.45 99.74 69.04 100.25 72.04 99.06C73.44 100.8 75.81 101.76 78.86 100.78C79.19 100.67 79.53 100.56 79.87 100.46C81.68 99.88 82.92 98.86 83.66 97.65C85.67 96.07 88.2 94.63 90.48 93.28C86.1 97.11 81.83 101.04 77.74 105.16C74.11 105.82 70.21 106.45 65.86 107.22C59.11 107.96 53.63 108.33 49.37 108.26C51.92 107.13 54.22 105.38 56.42 103.51H56.43ZM242.9 119.6C257.87 119.86 272.82 120.18 287.34 120.55C287.25 120.55 287.15 120.55 287.06 120.55C272.34 120.8 257.63 121.32 242.92 121.95C243.26 121.2 243.23 120.35 242.91 119.6H242.9ZM313.74 92.58C313.74 92.58 313.73 92.6 313.72 92.61C313.72 92.61 313.72 92.61 313.72 92.6C313.72 92.6 313.73 92.59 313.74 92.58ZM346.93 68.91C346.76 69.22 346.66 69.56 346.65 69.9C343.72 73.44 340.82 77.04 337.9 80.61C337.87 80.61 337.85 80.63 337.82 80.64C336.52 81.08 335.89 82.1 335.78 83.18C332 87.72 328.13 92.16 324 96.31C331.44 87 339.01 77.8 346.94 68.91H346.93ZM332.82 105.85C334.63 106.91 336.97 107.06 339.36 105.52C347.02 100.57 354.36 95.27 361.66 89.92C355.32 95.08 349.14 100.39 343.43 106.13C338.45 108.52 334.35 109.24 329.41 108.57C330.54 107.65 331.68 106.75 332.82 105.85ZM479.53 94.13C482.44 91.97 485.39 89.82 488.34 87.69C488.61 88.65 489.32 89.51 490.26 89.87C486.23 94.51 482.01 99.11 476.87 102.74C476.18 102.76 475.5 102.78 474.79 102.78C472.36 102.78 470.32 102.78 468.65 102.76C472.23 99.84 475.79 96.9 479.52 94.13H479.53ZM524.63 102.97C510.16 107.08 510.44 102.58 530.34 89.48C535.32 85.65 540 82.02 544.37 78.6C544.02 78.9 543.68 79.21 543.33 79.51C536.94 84.99 528.47 90.58 524.72 97.88C523.78 99.71 523.9 101.48 524.64 102.97H524.63ZM582.55 64.33C581.94 64.74 581.32 65.14 580.71 65.55C578.13 67.29 575.42 68.96 572.66 70.6C573.15 70.15 573.65 69.72 574.14 69.27C580.94 63.07 587.86 56.96 594.71 50.8C596.48 49.21 598.2 47.58 599.97 45.99C600.87 45.18 601.78 44.38 602.7 43.6C603.65 42.79 605.29 42.33 603.33 42.69C607.37 41.95 608.71 39 608.1 36.24H611.11C611.11 39.16 600.14 49.8 582.55 64.33ZM614.64 86.26C613.93 87.12 613.23 87.99 612.56 88.89C610.23 91.97 615.44 94.96 617.74 91.92C621.18 87.37 625.25 83.31 629.4 79.39C631.19 79.57 633.03 79.5 634.78 79.17C633.75 80.22 632.72 81.27 631.7 82.33C628.35 85.83 624.37 89.24 621.04 92.98C617.55 93.53 614.1 93.93 611.1 93.93L603.24 95.31C607.17 92.44 610.94 89.4 614.64 86.28V86.26ZM641.25 82.86C645.78 77.98 649.92 72.77 653.96 67.48C649.94 73.55 646.55 80.01 644.3 87.2C643.89 88.51 644.36 89.54 645.18 90.18C645.16 90.26 645.13 90.33 645.11 90.4C644.99 90.79 644.97 91.14 644.99 91.48C641.27 91.45 637.92 86.46 641.27 82.85L641.25 82.86ZM685.15 44.86C682.91 47.84 680.68 50.74 677.97 53.26C680.95 49.48 683.68 45.54 685.87 41.26C686.2 42.4 686.06 43.65 685.15 44.86ZM683.42 32.42C683.13 32.76 682.86 33.1 682.59 33.44C679.89 35.56 677.44 38.2 675.14 40.89C674.18 41.78 673.23 42.67 672.27 43.57C673.07 41.48 673.74 39.77 674.39 38.35C677.22 36.25 680.05 34.14 682.88 32.03C683.22 32 683.59 31.97 683.96 31.94C683.76 32.07 683.58 32.22 683.41 32.42H683.42ZM673.38 43C671.96 44.72 670.59 46.42 669.25 47.98C668.1 49.32 666.95 50.66 665.81 52.01C666.5 51.14 667.19 50.26 667.89 49.4C668.16 48.77 668.61 48.17 669.29 47.61C669.4 47.52 669.5 47.42 669.6 47.33C670.83 45.86 672.09 44.42 673.38 42.99V43ZM670.53 62.09C665.47 68.63 660.6 75.33 655.39 81.74C659.48 74.61 665.03 68.37 670.53 62.09ZM531.59 21.74C530.55 21.78 529.52 21.82 528.48 21.86C528 21.26 527.25 20.86 526.22 20.92C522.32 21.14 518.38 21.43 515.35 19.83C522.05 19.61 528.74 19.4 535.44 19.18C534.15 20.03 532.87 20.88 531.58 21.74H531.59ZM507.28 20.09C507.87 21 508.5 21.79 509.19 22.49C505.43 22.59 501.77 22.68 498.23 22.75C500.34 21.94 502.39 20.97 504.51 20.18C505.44 20.15 506.36 20.12 507.29 20.09H507.28ZM86.1 63.81C80.47 70.08 74.96 76.51 69.64 83.04C65.88 87.66 62.69 93.2 57.79 96.71C57.51 96.46 57.25 96.18 57.04 95.87C58.78 93.22 60.42 90.47 62.4 87.97C68.45 80.36 75.21 73.29 82.21 66.56C85.74 63.17 89.52 59.39 93.56 55.8C91.02 58.42 88.53 61.09 86.09 63.8L86.1 63.81ZM152.35 124.23C148.39 123.72 144.44 123.11 140.49 122.46C143.97 122.4 147.44 122.34 150.92 122.26C167.17 121.9 183.44 121.65 199.61 123.41C200.62 123.52 201.64 123.63 202.65 123.75C189.11 124.35 175.56 124.89 162.01 125.23C158.78 124.96 155.55 124.63 152.34 124.22L152.35 124.23ZM305.84 98.89C306.17 98.66 306.48 98.42 306.8 98.18C307.65 97.83 308.49 97.48 309.34 97.11C310.2 96.73 310.67 96.14 310.83 95.48C311.1 95.4 311.37 95.32 311.64 95.24C311.83 95.18 312 95.11 312.16 95.03C309.67 98.87 307.28 102.8 305.04 106.82C303.21 104.7 302.86 100.97 305.84 98.88V98.89ZM540.03 12.87C530.13 13.13 520.23 13.39 510.33 13.67C509.66 13.14 508.79 12.95 507.73 13.09C506.68 13.23 505.67 13.5 504.68 13.83C503.48 13.87 502.28 13.9 501.08 13.94C501.24 13 501.01 12.01 500.3 11.32C503.24 11.35 506.19 11.42 509.14 11.52C519.45 11.86 529.74 12.37 540.04 12.87H540.03ZM439.58 13.66C455.1 12.58 470.47 11.67 485.91 11.39C485.27 12.05 484.69 12.86 484.19 13.9C484.09 14.1 484.01 14.3 483.93 14.5C473.34 14.86 462.76 15.24 452.18 15.7C430.39 16.65 408.59 16.97 386.8 16.24C404.42 15.66 422.02 14.89 439.59 13.67L439.58 13.66ZM45.7 49.54C45.7 43.6267 50.75 39.19 60.85 36.23H70.59C66.34 40.1 62.01 43.9 57.52 47.55C53.41 50.9 49.1 54.08 45.28 57.69C44.93 58.02 44.59 58.37 44.26 58.71C45.07 55.78 45.7 52.65 45.7 49.53V49.54ZM70.94 67.28C78.68 60.48 84.99 54.94 90.32 50.51C97.52 42.65 105.64 34.9 115.2 30.79C117.74 29.7 120.14 30.7 121.55 32.4C119.72 33.56 117.93 34.77 116.18 36.03C105.55 38.55 96.47 45.58 87.97 53.13C88.68 52.33 89.39 51.54 90.12 50.74C89.27 51.53 88.42 52.31 87.55 53.08C82.44 57.63 77.59 61.97 73.2 67.05C69.63 70.64 66.17 74.34 62.85 78.16C62.71 78.32 62.57 78.48 62.43 78.64C60.57 80.2 58.72 81.76 56.84 83.31C51.49 87.72 45.71 91.69 41.01 96.59C45.71 90.07 55.86 80.53 70.94 67.28ZM44.04 125.89C44.12 125.98 44.2 126.07 44.29 126.15C44.29 126.15 44.31 126.16 44.32 126.17C43.73 126.17 43.14 126.17 42.55 126.16C43.04 126.07 43.54 125.98 44.04 125.89ZM96.76 124.95C88.08 125.05 79.43 125.57 70.76 125.93C79.77 124.4 89.1 123.84 98.14 123.7C106.08 123.57 113.96 124.31 121.81 125.37C113.46 125.14 105.11 124.86 96.76 124.95ZM299.28 126.37C301.92 126.33 304.55 126.29 307.19 126.26C304.55 126.32 301.92 126.36 299.28 126.37ZM698.25 116.02C697.47 116.01 696.74 115.93 696.04 115.8C695.64 115.61 695.17 115.49 694.62 115.47C693.07 115.06 691.59 114.51 689.92 114.12C689.45 114.01 688.98 113.94 688.51 113.87C690.71 113.29 692.86 112.6 694.94 111.76C697.61 112.86 699.92 114.31 701.68 115.79C700.54 115.93 699.4 116.03 698.26 116.01L698.25 116.02ZM705.95 68.62C705.35 68.26 704.67 68.01 703.92 67.92C701.34 67.61 698.99 67.94 696.83 68.71C699.16 66.15 701.46 63.59 703.75 61C704.83 59.78 705.92 58.57 707 57.34C706.85 61.42 706.46 65.22 705.95 68.61V68.62ZM710.45 39.07C709.91 39.04 709.36 39.07 708.79 39.16C709.38 38.62 709.99 38.12 710.64 37.65C710.69 37.63 710.73 37.61 710.78 37.59L710.44 39.07H710.45ZM713.64 114.83C713.58 115 713.56 115.16 713.54 115.32C713.52 115.34 713.5 115.36 713.48 115.39C713.1 115.36 712.72 115.32 712.34 115.29C713.01 112.88 715.14 105.2 717.76 94.74C717.83 94.9 717.9 95.05 718 95.19C717.67 101.84 715.71 108.5 713.65 114.84L713.64 114.83Z" fill="#FFD6A5"/>
<path d="M604.95 122.05C612.04 118.42 620.33 119.22 627.89 120.64C635.76 122.12 643.53 124.56 651.56 125.05C671.66 126.28 691.66 122.18 711.69 121.52C721.61 121.19 731.62 122.29 741.46 120.64C742.48 120.47 742.74 119.22 742.36 118.44C741.64 116.97 740.4 116.07 739.06 115.21C737.43 114.16 735.93 116.75 737.55 117.8C738.48 118.4 739.28 118.94 739.78 119.96L740.68 117.76C731.81 119.25 722.7 118.35 713.76 118.48C703.87 118.62 693.99 119.81 684.14 120.72C673.93 121.66 663.67 122.47 653.41 122.14C645.34 121.88 637.55 119.5 629.68 117.95C620.97 116.24 611.63 115.29 603.45 119.47C601.73 120.35 603.25 122.94 604.96 122.06L604.95 122.05Z" fill="#FFD6A5"/>
<path d="M599.28 117.79C598.98 117.98 599.14 117.76 599.2 117.85C599.23 117.89 599.02 117.85 599.36 117.83C599.75 117.8 600.15 117.78 600.54 117.76C601.75 117.72 602.97 117.72 604.19 117.73C606.93 117.75 609.68 117.81 612.42 117.9C615.81 118.01 619.1 118.4 622.43 119.06C626.89 119.95 631.35 120.93 635.93 120.84C637.57 120.81 638.03 118.28 636.33 117.89C630.58 116.58 624.62 116.14 618.73 116.24C612.84 116.34 606.84 116.96 601.16 118.6C599.57 119.06 599.83 121.61 601.56 121.55C606.35 121.37 611.12 121.77 615.86 122.47C620.54 123.17 625.17 124.28 629.87 124.79C639.29 125.82 648.63 123.67 657.99 122.94C677.01 121.46 696.17 124.46 715.07 121.19C720.11 120.32 725.24 119.02 730.38 119.8C733.88 120.33 738.52 122.6 741.9 120.61C743.56 119.63 742.06 117.04 740.39 118.02C739.15 118.75 737.31 118.23 736.01 117.95C734.15 117.55 732.32 117.04 730.43 116.8C726.02 116.23 721.63 116.94 717.29 117.74C707.99 119.46 698.69 119.93 689.25 119.81C679.81 119.69 670.34 119.22 660.89 119.75C651.44 120.28 642.46 122.38 633.17 122.03C627.83 121.83 622.61 120.49 617.34 119.68C612.11 118.87 606.84 118.35 601.55 118.55L601.95 121.5C607.39 119.93 613.08 119.34 618.72 119.25C624.36 119.16 630.03 119.55 635.52 120.79L635.92 117.84C631.15 117.94 626.54 116.79 621.89 115.91C618.58 115.28 615.29 114.99 611.93 114.88C609.08 114.79 606.22 114.72 603.37 114.72C602.24 114.72 601.11 114.72 599.98 114.78C599.27 114.82 598.38 114.8 597.76 115.19C596.13 116.21 597.63 118.81 599.27 117.78L599.28 117.79Z" fill="#FFD6A5"/>
<path d="M604.55 114.02C604.33 113.79 604.07 113.63 603.81 113.46C603.68 113.39 603.56 113.32 603.43 113.26C603.11 113.06 603.2 113.18 603.7 113.6L602.8 115.8C602.58 115.85 602.74 115.82 602.92 115.86C603.22 115.93 603.56 115.88 603.87 115.89C604.35 115.9 604.82 115.91 605.3 115.92C606.49 115.94 607.67 115.94 608.86 115.92C610.99 115.89 613.13 115.82 615.26 115.72C619.61 115.51 623.95 115.15 628.29 114.76C637.08 113.96 645.86 113 654.69 112.7C659.1 112.55 663.51 112.56 667.91 112.83C672.31 113.1 676.83 113.62 681.3 113.99C690.15 114.72 699.04 115.16 707.92 114.59C712.79 114.28 717.56 113.12 722.43 112.88C727.21 112.64 731.59 114.47 736.29 114.84C737.72 114.95 738.41 112.63 737.05 112.04C735.8 111.5 734.68 111.52 733.35 111.44C731.42 111.32 731.43 114.32 733.35 114.44C734.04 114.48 734.88 114.35 735.53 114.63L736.29 111.83C732.15 111.5 728.25 109.87 724.07 109.83C719.89 109.79 715.59 110.87 711.34 111.31C702.42 112.23 693.37 111.88 684.44 111.22C675.51 110.56 666.42 109.44 657.33 109.61C648.49 109.77 639.69 110.68 630.9 111.5C626.01 111.96 621.12 112.39 616.21 112.65C613.76 112.78 611.31 112.87 608.86 112.9C607.59 112.91 606.33 112.91 605.06 112.9C604.08 112.88 602.97 112.69 602.01 112.9C600.98 113.12 600.74 114.28 601.11 115.1C601.36 115.65 602.19 115.88 602.43 116.13C603.77 117.52 605.89 115.4 604.55 114.01V114.02Z" fill="#FFD6A5"/>
<path d="M611.32 112.64C612.15 107.61 612.85 102.55 613.25 97.47C613.65 92.46 613.48 87.49 613.54 82.47C613.65 72.88 616.54 63.61 617.05 54.06C617.15 52.13 614.15 52.14 614.05 54.06C613.54 63.46 610.74 72.58 610.54 82.01C610.44 87.02 610.66 91.98 610.28 96.99C609.9 102 609.23 106.92 608.42 111.85C608.11 113.74 611 114.55 611.31 112.65L611.32 112.64Z" fill="#FFD6A5"/>
</svg>
